<svg width="18" height="18" viewBox="0 0 18 18" fill="none" xmlns="http://www.w3.org/2000/svg">
<path d="M14 4.83333H14.8333M0.666626 8.16667L1.32496 10.32C1.42918 10.6614 1.64024 10.9603 1.92708 11.1727C2.21391 11.3851 2.56136 11.4999 2.91829 11.5H3.99996M17.3333 8.16667L16.675 10.32C16.5707 10.6614 16.3597 10.9603 16.0728 11.1727C15.786 11.3851 15.4386 11.4999 15.0816 11.5H14M6.91663 11.0833C6.91663 11.0833 6.91663 16.9167 3.99996 16.9167M11.0833 11.0833C11.0833 11.0833 11.0833 16.9167 14 16.9167M8.99996 11.0833V16.9167M17.3333 2V8.16667H0.666626V2C0.666626 1.86739 0.719304 1.74021 0.813073 1.64645C0.906841 1.55268 1.03402 1.5 1.16663 1.5H16.8333C16.9659 1.5 17.0931 1.55268 17.1868 1.64645C17.2806 1.74021 17.3333 1.86739 17.3333 2V2Z" stroke="#525256" stroke-width="1.5" stroke-linecap="round" stroke-linejoin="round"/>
</svg>
