<svg width="16" height="16" viewBox="0 0 16 16" fill="none" xmlns="http://www.w3.org/2000/svg">
<path d="M1.90525 0.696646C1.42255 0.699062 0.960441 0.892512 0.619971 1.23469C0.279501 1.57688 0.0883729 2.03995 0.0883789 2.52266C0.0893475 2.94682 0.237948 3.35741 0.508667 3.68394C0.779387 4.01047 1.15534 4.23258 1.57197 4.31212V11.6844C1.15474 11.764 0.778338 11.9867 0.507549 12.3139C0.23676 12.6412 0.0885309 13.0526 0.0883789 13.4774C0.0887517 13.9614 0.281299 14.4255 0.623703 14.7676C0.966107 15.1098 1.43035 15.302 1.91439 15.302C2.3982 15.3016 2.86208 15.1092 3.20418 14.7671C3.54628 14.425 3.73863 13.9612 3.739 13.4774C3.73893 13.0528 3.59095 12.6416 3.32051 12.3144C3.05007 11.9872 2.67407 11.7644 2.25717 11.6844V8.34102H7.65541V11.6844C7.23818 11.764 6.86178 11.9867 6.59099 12.3139C6.3202 12.6412 6.17197 13.0526 6.17182 13.4774C6.172 13.7172 6.21944 13.9547 6.31142 14.1762C6.4034 14.3977 6.53812 14.5989 6.70789 14.7684C6.87765 14.9378 7.07914 15.0721 7.30083 15.1637C7.52253 15.2553 7.76009 15.3022 7.99994 15.302C8.48374 15.3016 8.94762 15.1092 9.28972 14.7671C9.63182 14.425 9.82418 13.9612 9.82455 13.4774C9.8244 13.0526 9.67617 12.6412 9.40538 12.3139C9.13459 11.9867 8.75819 11.764 8.34096 11.6844V8.34102H14.4265V4.31212C14.8431 4.23258 15.2191 4.01047 15.4898 3.68394C15.7605 3.35741 15.9091 2.94682 15.9101 2.52266C15.9101 2.03862 15.7179 1.57437 15.3758 1.23197C15.0336 0.889566 14.5695 0.697019 14.0855 0.696646C14.0831 0.696641 14.0808 0.696641 14.0785 0.696646C13.5956 0.698877 13.1333 0.892245 12.7927 1.23445C12.4521 1.57665 12.2609 2.03983 12.2609 2.52266C12.2618 2.94682 12.4104 3.35741 12.6812 3.68394C12.9519 4.01047 13.3278 4.23258 13.7445 4.31212V7.65547H8.34096V4.31212C8.75759 4.23258 9.13354 4.01047 9.40426 3.68394C9.67498 3.35741 9.82358 2.94682 9.82455 2.52266C9.82455 2.03862 9.63236 1.57437 9.29022 1.23197C8.94808 0.889566 8.48399 0.697019 7.99994 0.696646C7.9976 0.696641 7.99525 0.696641 7.99291 0.696646C7.50947 0.697949 7.04628 0.890907 6.7049 1.23321C6.36352 1.57551 6.17181 2.03922 6.17182 2.52266C6.17279 2.94682 6.32139 3.35741 6.5921 3.68394C6.86282 4.01047 7.23877 4.23258 7.65541 4.31212V7.65547H2.25717V4.31212C2.67348 4.23221 3.04902 4.00996 3.31939 3.68346C3.58976 3.35696 3.73811 2.94657 3.739 2.52266C3.739 2.03862 3.54681 1.57437 3.20467 1.23197C2.86253 0.889566 2.39844 0.697019 1.91439 0.696646C1.91135 0.696638 1.9083 0.696638 1.90525 0.696646Z" fill="#525256"/>
</svg>
