<svg width="129" height="32" viewBox="0 0 129 32" fill="none" xmlns="http://www.w3.org/2000/svg">
<path d="M128.323 19.087C128.323 26.2187 122.541 32 115.41 32C108.278 32 102.497 26.2187 102.497 19.087C102.497 11.9554 108.278 6.17402 115.41 6.17402C122.541 6.17402 128.323 11.9554 128.323 19.087Z" fill="#FF4545"/>
<path d="M17.4056 24.158C17.1456 23.2434 16.8766 22.3377 16.5986 21.4409C16.3206 20.5352 16.0291 19.6251 15.7243 18.7104L4.89617 19.1812C4.56438 20.042 4.24604 20.8984 3.94115 21.7503C3.63626 22.6022 3.34034 23.4631 3.05338 24.3329L0 23.9159C1.2644 20.5263 2.6633 17.1904 4.19672 13.9084C5.73911 10.6263 7.38013 7.37565 9.1198 4.15637L12.8861 4.22362C14.4285 7.33529 15.8363 10.5097 17.1097 13.747C18.3831 16.9752 19.5399 20.2931 20.5801 23.7007L17.4056 24.158ZM10.7205 6.38924C9.81477 8.11097 8.95839 9.84167 8.15132 11.5813C7.34426 13.312 6.57307 15.0652 5.83775 16.8407L14.9306 16.4506C14.3209 14.7289 13.6662 13.0385 12.9668 11.3796C12.2673 9.72061 11.5186 8.05717 10.7205 6.38924Z" fill="#FDFDFD"/>
<path d="M23.5931 24.3867C23.5393 22.8443 23.49 21.4499 23.4451 20.2034C23.4003 18.948 23.36 17.8271 23.3241 16.8407C23.2882 15.8543 23.2568 14.9844 23.2299 14.2312C23.212 13.4779 23.1941 12.8278 23.1761 12.2808C23.1403 10.9985 23.1134 10.0479 23.0954 9.42917L26.1623 9.37537L26.2161 13.2493C26.512 12.7381 26.8483 12.2584 27.2249 11.81C27.6015 11.3527 28.0095 10.9491 28.4489 10.5994C28.8883 10.2497 29.3546 9.96721 29.8478 9.752C30.35 9.53678 30.8746 9.41124 31.4216 9.37537C32.1031 9.33053 32.695 9.38882 33.1971 9.55023C33.7083 9.71164 34.1432 9.93583 34.5019 10.2228C34.8606 10.5097 35.1565 10.8505 35.3897 11.2451C35.6228 11.6307 35.8066 12.0342 35.9412 12.4557C36.0757 12.8682 36.1698 13.2807 36.2236 13.6931C36.2864 14.1056 36.3267 14.4823 36.3447 14.823C36.3985 16.3654 36.4119 17.9168 36.385 19.4771C36.3581 21.0374 36.3267 22.656 36.2909 24.3329L33.5334 24.2388C33.6052 22.795 33.6679 21.3513 33.7217 19.9075C33.7845 18.4638 33.78 17.0066 33.7083 15.5359C33.7083 15.3745 33.6948 15.1683 33.6679 14.9172C33.65 14.6571 33.6007 14.3836 33.52 14.0967C33.4482 13.8097 33.3451 13.5273 33.2106 13.2493C33.0761 12.9623 32.9012 12.7157 32.686 12.5095C32.4708 12.2942 32.2062 12.1328 31.8924 12.0252C31.5875 11.9176 31.2288 11.8952 30.8163 11.958C30.1079 12.0656 29.386 12.5857 28.6507 13.5183C27.9243 14.4419 27.1397 15.796 26.2968 17.5805C26.3326 19.0242 26.3595 20.1765 26.3775 21.0374C26.4044 21.8893 26.4268 22.535 26.4447 22.9744C26.4627 23.4945 26.4761 23.8442 26.4851 24.0235L23.5931 24.3867Z" fill="#FDFDFD"/>
<path d="M54.4767 8.4876L54.396 23.9428C54.387 24.5257 54.3108 25.1041 54.1673 25.678C54.0238 26.2609 53.8086 26.8214 53.5216 27.3594C53.2437 27.9064 52.8939 28.4175 52.4725 28.8928C52.06 29.377 51.5802 29.803 51.0332 30.1707C50.4952 30.5473 49.8899 30.8522 49.2173 31.0853C48.5448 31.3274 47.8094 31.4799 47.0114 31.5427C45.9263 31.5785 44.904 31.4664 43.9445 31.2064C43.532 31.0988 43.1106 30.9508 42.6801 30.7625C42.2587 30.5742 41.8506 30.3321 41.4561 30.0361C41.0615 29.7492 40.6983 29.3995 40.3665 28.987C40.0348 28.5834 39.7612 28.1037 39.546 27.5477L42.1421 26.4178C42.3125 26.8034 42.5187 27.1352 42.7608 27.4132C43.0029 27.6912 43.263 27.9243 43.541 28.1127C43.819 28.301 44.1014 28.4534 44.3884 28.57C44.6843 28.6866 44.9713 28.7718 45.2493 28.8256C45.9039 28.969 46.5944 28.9959 47.3207 28.9063C47.9484 28.7807 48.491 28.5879 48.9483 28.3279C49.4146 28.0678 49.8092 27.7764 50.132 27.4536C50.4548 27.1397 50.7149 26.8034 50.9122 26.4447C51.1184 26.095 51.2798 25.7587 51.3964 25.4359C51.513 25.1131 51.5892 24.8172 51.6251 24.5481C51.6699 24.2881 51.6923 24.0863 51.6923 23.9428V22.1807C51.1543 22.6919 50.5938 23.0865 50.0109 23.3644C49.437 23.6335 48.9035 23.8307 48.4103 23.9563C47.8363 24.1087 47.2714 24.1939 46.7154 24.2119C45.6752 24.2119 44.7067 24.028 43.81 23.6604C42.9133 23.3017 42.1331 22.786 41.4695 22.1135C40.8059 21.432 40.2814 20.607 39.8958 19.6385C39.5191 18.67 39.3308 17.5805 39.3308 16.3699C39.3308 15.1503 39.5415 14.0653 39.963 13.1148C40.3845 12.1552 40.936 11.3482 41.6175 10.6936C42.308 10.039 43.0837 9.54126 43.9445 9.2005C44.8144 8.85078 45.6887 8.67591 46.5675 8.67591C47.1772 8.74765 47.7915 8.88216 48.4103 9.07944C48.9393 9.24982 49.5088 9.49194 50.1185 9.8058C50.7283 10.1197 51.2933 10.5456 51.8134 11.0836L51.8403 8.40689L54.4767 8.4876ZM46.7154 21.6293C47.3073 21.6293 47.8812 21.5261 48.4372 21.3199C48.9931 21.1136 49.4953 20.8267 49.9437 20.459C50.401 20.0824 50.7866 19.6385 51.1005 19.1274C51.4143 18.6073 51.6295 18.0378 51.7461 17.4191V15.657C51.6475 15.0203 51.4367 14.4419 51.1139 13.9218C50.7911 13.3927 50.3965 12.9399 49.9302 12.5633C49.4639 12.1866 48.9438 11.8952 48.3699 11.6889C47.805 11.4827 47.2266 11.3796 46.6347 11.3796C45.9891 11.3796 45.3927 11.5141 44.8457 11.7831C44.2987 12.0432 43.8279 12.4063 43.4334 12.8726C43.0478 13.3389 42.7429 13.8904 42.5187 14.5271C42.3035 15.1638 42.1959 15.8498 42.1959 16.5851C42.1959 17.3204 42.308 17.9975 42.5322 18.6162C42.7563 19.235 43.0657 19.7685 43.4603 20.2169C43.8638 20.6563 44.3391 21.0015 44.8861 21.2526C45.4421 21.5037 46.0518 21.6293 46.7154 21.6293Z" fill="#FDFDFD"/>
<path d="M64.8743 22.1538C65.3496 22.1538 65.8204 22.0821 66.2867 21.9386C66.753 21.7862 67.1834 21.571 67.578 21.293C67.9725 21.006 68.3133 20.6518 68.6003 20.2303C68.8962 19.8089 69.1114 19.3202 69.2459 18.7642L71.842 19.2888C71.5909 20.1048 71.2367 20.8446 70.7793 21.5082C70.322 22.1718 69.7884 22.7412 69.1786 23.2165C68.5689 23.6917 67.8963 24.0594 67.161 24.3195C66.4346 24.5795 65.6724 24.7095 64.8743 24.7095C63.6906 24.7095 62.6414 24.5302 61.7268 24.1715C60.8121 23.8128 60.0409 23.3062 59.4132 22.6515C58.7855 21.9969 58.3057 21.2078 57.9739 20.2842C57.6511 19.3605 57.4897 18.3293 57.4897 17.1904C57.4897 16.0695 57.678 15.0248 58.0546 14.0563C58.4402 13.0789 58.9648 12.2315 59.6284 11.5141C60.292 10.7967 61.0722 10.2317 61.9689 9.81925C62.8656 9.40675 63.8341 9.2005 64.8743 9.2005C65.8069 9.2005 66.6857 9.38433 67.5107 9.752C68.3357 10.1107 69.0666 10.6129 69.7032 11.2585C70.3399 11.8952 70.8645 12.6485 71.277 13.5183C71.6895 14.3881 71.9496 15.3297 72.0572 16.343L60.4086 18.0782C60.4713 18.7149 60.6283 19.2888 60.8794 19.7999C61.1305 20.3021 61.4488 20.728 61.8344 21.0778C62.229 21.4275 62.6818 21.6965 63.1929 21.8848C63.713 22.0642 64.2735 22.1538 64.8743 22.1538ZM68.5868 14.6078L68.5061 14.3522C68.1653 13.4645 67.6945 12.7695 67.0937 12.2673C66.5019 11.7652 65.7621 11.5141 64.8743 11.5141C64.4977 11.5141 64.0852 11.5813 63.6368 11.7158C63.1885 11.8414 62.7535 12.0611 62.3321 12.3749C61.9106 12.6888 61.5295 13.1103 61.1887 13.6393C60.8569 14.1595 60.6238 14.8096 60.4893 15.5897L68.5868 14.6078Z" fill="#FDFDFD"/>
<path d="M80.074 24.0504C79.4373 24.0415 78.8724 23.9339 78.3792 23.7276C77.8949 23.5214 77.4645 23.2568 77.0879 22.934C76.7202 22.6022 76.4019 22.2256 76.1328 21.8041C75.8728 21.3827 75.6531 20.9567 75.4737 20.5263C75.0433 19.504 74.7743 18.3472 74.6667 17.0559L75.0298 0H77.8411C77.7963 1.59619 77.7514 3.06235 77.7066 4.39849C77.6707 5.72566 77.6394 6.93625 77.6124 8.03026C77.5855 9.11531 77.5586 10.0883 77.5317 10.9491C77.5138 11.81 77.4959 12.5677 77.4779 13.2224C77.4421 14.7647 77.4152 15.9798 77.3972 16.8676C77.4152 17.7016 77.5362 18.4458 77.7604 19.1005C77.8501 19.3785 77.9667 19.652 78.1101 19.921C78.2626 20.19 78.4419 20.4321 78.6482 20.6473C78.8634 20.8625 79.1145 21.0374 79.4014 21.1719C79.6974 21.2975 80.0381 21.3647 80.4237 21.3737L80.074 24.0504Z" fill="#FDFDFD"/>
<path d="M96 16.8676C96 17.9975 95.8117 19.0422 95.4351 20.0017C95.0584 20.9612 94.5428 21.7952 93.8882 22.5036C93.2336 23.212 92.4669 23.7635 91.5881 24.158C90.7093 24.5616 89.7722 24.7633 88.7768 24.7633C87.7814 24.7633 86.8488 24.575 85.979 24.1984C85.1092 23.8218 84.3469 23.2882 83.6923 22.5977C83.0467 21.8983 82.5355 21.0643 82.1589 20.0958C81.7823 19.1274 81.5939 18.0513 81.5939 16.8676C81.5939 15.6749 81.7823 14.5944 82.1589 13.6259C82.5355 12.6485 83.0467 11.8145 83.6923 11.124C84.3469 10.4335 85.1092 9.89996 85.979 9.52333C86.8488 9.1467 87.7814 8.95839 88.7768 8.95839C89.7722 8.95839 90.7093 9.16015 91.5881 9.56368C92.4669 9.95825 93.2336 10.5097 93.8882 11.2182C94.5428 11.9176 95.0584 12.7516 95.4351 13.72C95.8117 14.6796 96 15.7287 96 16.8676ZM93.1618 16.8407C93.1618 16.195 93.0811 15.5449 92.9197 14.8903C92.7583 14.2267 92.5027 13.6349 92.153 13.1148C91.8033 12.5857 91.3504 12.1552 90.7945 11.8235C90.2385 11.4917 89.5659 11.3258 88.7768 11.3258C88.0146 11.3258 87.36 11.4917 86.813 11.8235C86.2659 12.1552 85.8176 12.5857 85.4678 13.1148C85.1181 13.6349 84.8625 14.2267 84.7011 14.8903C84.5397 15.5449 84.459 16.195 84.459 16.8407C84.459 17.4863 84.5442 18.1365 84.7146 18.7911C84.8939 19.4457 85.163 20.0375 85.5217 20.5666C85.8803 21.0867 86.3287 21.5127 86.8668 21.8445C87.4138 22.1763 88.0504 22.3422 88.7768 22.3422C89.539 22.3422 90.1936 22.1763 90.7407 21.8445C91.2966 21.5127 91.754 21.0867 92.1127 20.5666C92.4714 20.0375 92.7359 19.4457 92.9063 18.7911C93.0766 18.1365 93.1618 17.4863 93.1618 16.8407Z" fill="#FDFDFD"/>
<path d="M102.053 3.22825L101.972 11.4065C102.465 10.8684 102.99 10.447 103.546 10.1421C104.102 9.82822 104.622 9.59058 105.106 9.42917C105.662 9.24982 106.214 9.12877 106.761 9.06599C107.765 9.06599 108.68 9.24534 109.505 9.60404C110.33 9.96273 111.038 10.4784 111.63 11.1509C112.222 11.8235 112.688 12.644 113.029 13.6124C113.379 14.5719 113.576 15.657 113.621 16.8676C113.621 17.5043 113.612 18.1544 113.594 18.818C113.585 19.4816 113.554 20.1317 113.5 20.7684C113.455 21.4051 113.388 22.0104 113.298 22.5843C113.217 23.1582 113.105 23.6738 112.962 24.1311L109.895 23.9159C110.155 23.0551 110.339 22.2166 110.446 21.4006C110.563 20.5846 110.644 19.8537 110.689 19.2081C110.733 18.4548 110.747 17.7374 110.729 17.0559C110.684 16.0964 110.518 15.2804 110.231 14.6078C109.944 13.9353 109.59 13.3883 109.169 12.9668C108.756 12.5364 108.299 12.227 107.797 12.0387C107.294 11.8414 106.801 11.7427 106.317 11.7427C105.806 11.7876 105.29 11.9355 104.77 12.1866C104.322 12.4018 103.842 12.7381 103.331 13.1955C102.82 13.6438 102.344 14.2805 101.905 15.1055L101.824 24.0235L99.1879 24.0773L98.9592 3.33586L102.053 3.22825Z" fill="#FDFDFD"/>
</svg>
