<svg width="18" height="18" viewBox="0 0 18 18" fill="none" xmlns="http://www.w3.org/2000/svg">
<path fill-rule="evenodd" clip-rule="evenodd" d="M7.49701 17.8751C6.33144 17.6778 5.21616 17.2527 4.21484 16.6243C3.21352 15.9959 2.34579 15.1765 1.66117 14.2127C0.278522 12.2663 -0.274299 9.85042 0.124322 7.49644C0.522942 5.14247 1.84035 3.04325 3.78673 1.6606C5.73311 0.277957 8.14903 -0.274863 10.503 0.123757C12.8571 0.522378 14.9565 1.83985 16.3392 3.78633C17.722 5.73282 18.2749 8.14888 17.8763 10.503C17.4776 12.8571 16.1602 14.9565 14.2137 16.3392C12.2672 17.722 9.85114 18.2749 7.49701 17.8763V17.8751ZM2.24888 13.0568C4.30053 11.8696 6.62967 11.2463 9.00001 11.25C11.4593 11.25 13.7655 11.9081 15.7511 13.0568C16.4687 11.8618 16.8563 10.4978 16.8744 9.10411C16.8924 7.71037 16.5401 6.33683 15.8536 5.12376C15.1671 3.91069 14.1709 2.90157 12.9668 2.19945C11.7627 1.49734 10.3939 1.12738 9.00001 1.12738C7.60616 1.12738 6.23728 1.49734 5.03318 2.19945C3.82908 2.90157 2.83291 3.91069 2.1464 5.12376C1.4599 6.33683 1.10766 7.71037 1.12567 9.10411C1.14367 10.4978 1.53127 11.8618 2.24888 13.0568Z" fill="#525256"/>
</svg>
